<svg width="256" height="256" viewBox="0 0 24 24" xmlns="http://www.w3.org/2000/svg" xmlns:xlink="http://www.w3.org/1999/xlink" overflow="hidden"><g stroke="currentColor" stroke-width="1.5" fill="none"><path d="M21.995 13.52C21.943 12.92 21.456 12.314 20.644 11.75M21.995 13.52C22.022 13.828 21.933 14.116 21.743 14.381 21.357 14.917 20.552 15.357 19.443 15.67 21.1 15.202 22.077 14.452 21.995 13.52ZM21.995 13.52C21.9829 13.3898 21.9526 13.2618 21.905 13.14 21.8026 12.8898 21.656 12.6601 21.472 12.462 21.116 12.062 20.59 11.674 19.929 11.31M21.995 13.52C22.09 14.61 20.737 15.452 18.541 15.884M20.644 11.75C18.857 10.509 15.491 9.468 11.696 9.12 6.176 8.613 1.836 9.76 2.005 11.684M20.644 11.75C20.085 11.362 19.373 10.993 18.541 10.66 19.051 10.865 19.517 11.082 19.929 11.31M2.005 11.684C2.0171 11.8142 2.04739 11.9422 2.095 12.064 2.182 12.292 2.329 12.519 2.528 12.743 2.884 13.142 3.41 13.53 4.071 13.895M2.005 11.684C1.923 10.752 2.9 10.002 4.558 9.534 3.448 9.847 2.643 10.287 2.258 10.824 2.07024 11.0695 1.98011 11.3759 2.005 11.684ZM2.005 11.684C2.057 12.285 2.544 12.891 3.356 13.454M4.071 13.894C4.483 14.122 4.949 14.34 5.459 14.544 4.628 14.211 3.915 13.842 3.356 13.454M4.071 13.894C5.021 14.418 6.252 14.891 7.665 15.271M3.356 13.455C4.513 14.258 6.332 14.977 8.5 15.479M19.93 11.309C18.979 10.786 17.748 10.313 16.335 9.934" stroke="none" stroke-linecap="round" fill="#FFFFFF"/><path d="M15.274 4.85C15.534 4.687 15.785 4.545 16.027 4.427 16.908 3.997 17.664 3.877 18.202 4.137 18.478 4.27 18.68 4.495 18.812 4.798 18.934 5.082 18.996 5.433 19 5.842M15.274 4.851C13.46 5.996 11.276 8.214 9.382 10.992 6.239 15.602 5.081 20.014 6.788 20.859M15.274 4.85C14.886 5.095 14.48 5.39 14.064 5.729M6.787 20.859 6.797 20.864C6.911 20.919 7.034 20.957 7.166 20.978 7.403 21.018 7.668 21.003 7.957 20.941 8.473 20.831 9.062 20.564 9.698 20.166 9.848 20.073 9.998 19.972 10.152 19.865 10.408 19.685 10.67 19.487 10.936 19.27L12.111 18.316M6.787 20.859C5.961 20.45 5.806 19.207 6.221 17.511M18.778 7.49C18.928 6.875 19.004 6.32 19 5.843M19 5.843C19.007 6.699 18.759 7.805 18.281 9.056" stroke="none" stroke-linecap="round" fill="#FFFFFF"/><path d="M11.765 14.281C11.751 13.371 11.745 12.916 12.031 12.75 12.318 12.584 12.709 12.818 13.491 13.285L13.693 13.405C13.915 13.539 14.026 13.605 14.148 13.62 14.271 13.636 14.39 13.599 14.63 13.524L14.848 13.457C15.691 13.195 16.112 13.064 16.366 13.297 16.619 13.532 16.536 13.976 16.371 14.863L16.329 15.093C16.282 15.345 16.259 15.472 16.286 15.595 16.314 15.718 16.39 15.825 16.542 16.037L16.68 16.231C17.215 16.98 17.482 17.354 17.352 17.664 17.222 17.974 16.779 18.015 15.896 18.097L15.667 18.118C15.417 18.141 15.291 18.153 15.185 18.214 15.08 18.274 15.007 18.377 14.862 18.583L14.729 18.77C14.217 19.495 13.961 19.857 13.627 19.815 13.293 19.773 13.102 19.354 12.721 18.517L12.623 18.3C12.514 18.062 12.46 17.943 12.367 17.857 12.274 17.772 12.154 17.729 11.912 17.643L11.692 17.565C10.84 17.265 10.414 17.115 10.338 16.778 10.262 16.441 10.586 16.142 11.235 15.543L11.402 15.388C11.586 15.218 11.679 15.132 11.726 15.018 11.774 14.905 11.772 14.775 11.768 14.517Z" stroke="none" fill="#FFFFFF"/></g></svg>