<svg width="256" height="256" viewBox="0 0 512 512" xmlns="http://www.w3.org/2000/svg" xmlns:xlink="http://www.w3.org/1999/xlink" overflow="hidden"><path d="M326.594 14.97 286.814 60.438 285.717 170 338.277 74.22 326.591 14.97ZM204.438 27.78 196.188 99.875 249.218 194.938 247.656 86.063 204.436 27.781ZM69.75 61.157 105.188 135.437 210.375 213.187 172.655 134.313ZM435.47 81.407 368.906 110.282 313.094 203.782 406.594 147.972ZM435.75 172.501 360.75 225.564 449.53 223 495 180 435.75 172.5ZM276.687 193.876 264.719 232.156 228.811 202.251 241.968 253.126 190.498 271.656 240.778 279.439 228.81 337.501 258.654 301.438 274.624 321.813 274.279 275.251 310.219 283.031 298.249 256.126 341.312 214.813 295.249 226.783 276.686 193.876ZM17.469 199.156 109.219 250.096 204.062 249.156 122.405 200.938 17.468 199.158ZM394.061 246.938 335.405 267.72 429.499 283.594 491.812 261.594ZM81.156 279.063 35.686 318.813 94.938 330.533 169.938 282.845 81.156 279.065ZM325.376 295.251 403.469 371.126 475.249 381.782 430.124 324.972 325.374 295.252ZM218.156 299.157 129.186 349.345 71.031 446.251 167.938 388.095 218.158 299.157ZM293.626 301.782 309.438 405.94 382.813 481.94 357.843 373.283 293.625 301.783ZM261.719 342.596 239.719 404.94 255.624 499.033 276.404 440.378 261.718 342.598ZM217.529 367.533 163.155 442.566 169.593 501.816 213.405 456.346Z" fill="#FFFFFF"/></svg>