<svg width="256" height="256" viewBox="0 0 256 256" xmlns="http://www.w3.org/2000/svg" xmlns:xlink="http://www.w3.org/1999/xlink" overflow="hidden"><path d="M188 88C183.848 87.9941 179.747 88.9202 176 90.71L176 60C175.996 44.536 163.457 32.0032 147.993 32.0071 143.329 32.0083 138.739 33.1746 134.64 35.4 129.879 20.6871 114.093 12.6194 99.3797 17.3803 87.8338 21.1164 80.0088 31.8647 80 44L80 50.71C76.2531 48.9202 72.1524 47.9941 68 48 52.536 48 40 60.536 40 76L40 152C40 200.601 79.3989 240 128 240 176.601 240 216 200.601 216 152L216 116C216 100.536 203.464 88 188 88M200 152C200 191.764 167.764 224 128 224 88.2355 224 56 191.764 56 152L56 76C56 69.3726 61.3726 64 68 64 74.6274 64 80 69.3726 80 76L80 120C80 124.418 83.5817 128 88 128 92.4183 128 96 124.418 96 120L96 44C96 37.3726 101.373 32 108 32 114.627 32 120 37.3726 120 44L120 112C120 116.418 123.582 120 128 120 132.418 120 136 116.418 136 112L136 60C136 53.3726 141.373 48 148 48 154.627 48 160 53.3726 160 60L160 128.67C136.922 132.604 120.032 152.589 120 176 120 180.418 123.582 184 128 184 132.418 184 136 180.418 136 176 136 158.327 150.327 144 168 144 172.418 144 176 140.418 176 136L176 116C176 109.373 181.373 104 188 104 194.627 104 200 109.373 200 116Z" fill="#FFFFFF"/></svg>