<svg width="256" height="256" viewBox="0 0 512 512" xmlns="http://www.w3.org/2000/svg" xmlns:xlink="http://www.w3.org/1999/xlink" overflow="hidden"><path d="M97.53 20.705 97.53 20.707 103.955 103.639 17.521 97.212 17.521 150.942 225.433 225.696 151.26 20.705ZM17.52 20.707 17.52 52.244 72.42 72.102 53.73 20.707ZM237.366 45.21 253.12 252.953 45.374 237.2 345.737 345.574 237.368 45.21 237.365 45.21ZM354.708 217.137 354.71 217.145 354.71 217.137 354.707 217.137ZM354.71 217.145 365.982 365.815 217.302 354.543 432.27 432.105ZM442.203 354.795 442.205 354.803 442.205 354.795ZM442.205 354.803 449.363 449.199 354.959 442.039 491.449 491.286Z" fill="#FFFFFF"/></svg>