<svg width="256" height="256" viewBox="0 0 256 256" xmlns="http://www.w3.org/2000/svg" xmlns:xlink="http://www.w3.org/1999/xlink" overflow="hidden"><path d="M213.25 169.21C228.34 162.67 236 146.11 236 120 236 93.89 228.34 77.32 213.25 70.78 202.59 66.17 189.66 67.18 174.08 73.92 180.81 58.34 181.83 45.41 177.22 34.75 170.67 19.66 154.12 12 128 12 101.88 12 85.33 19.66 78.78 34.75 74.17 45.41 75.19 58.34 81.92 73.92 66.34 67.18 53.41 66.17 42.75 70.78 27.66 77.32 20 93.88 20 120 20 146.12 27.66 162.67 42.75 169.21 47.2521 171.133 52.1046 172.1 57 172.05 64.4333 172.05 72.7467 170.05 81.94 166.05 75.21 181.64 74.19 194.57 78.8 205.22 85.33 220.34 101.88 228 128 228 154.12 228 170.67 220.34 177.22 205.24 177.827 203.833 178.338 202.386 178.75 200.91 186.32 214.09 192.75 228.32 196.36 242.91 197.695 248.252 202.494 251.999 208 252 208.984 251.997 209.965 251.876 210.92 251.64 217.348 250.032 221.256 243.518 219.65 237.09 213.65 212.98 201.42 190.18 188.14 170.76 191.702 171.584 195.344 172.017 199 172.05 203.895 172.1 208.748 171.133 213.25 169.21M100.81 44.29C103.09 39 113 36 128 36 143 36 152.91 39 155.19 44.29 156.31 46.86 158.63 57.29 141.66 83.1 137.03 90.1 132.07 96.61 128 101.62 123.93 96.62 119 90.14 114.34 83.1 97.37 57.26 99.69 46.86 100.81 44.29M52.29 147.19C47 144.91 44 135 44 120 44 105 47 95.09 52.29 92.81 53.758 92.2255 55.3307 91.9497 56.91 92 62.47 92 73 94.45 91.1 106.34 97.4993 110.579 103.681 115.138 109.62 120 104.62 124.07 98.14 129 91.1 133.66 65.26 150.63 54.86 148.31 52.29 147.19M155.19 195.71C152.91 201 143 204 128 204 113 204 103.09 201 100.81 195.71 99.69 193.13 97.37 182.71 114.34 156.9 118.97 149.9 123.93 143.39 128 138.38 132.07 143.38 137 149.86 141.66 156.9 158.63 182.74 156.31 193.13 155.19 195.71M164.9 133.66C157.9 129.03 151.39 124.07 146.38 120 152.319 115.138 158.501 110.579 164.9 106.34 190.74 89.34 201.14 91.69 203.71 92.81 209 95.09 212 105 212 120 212 135 209 144.91 203.71 147.19 201.14 148.31 190.74 150.63 164.9 133.66" fill="#FFFFFF"/></svg>