<svg width="256" height="256" viewBox="0 0 512 512" xmlns="http://www.w3.org/2000/svg" xmlns:xlink="http://www.w3.org/1999/xlink" overflow="hidden"><path d="M191.98 463.58 191.98 415.58M90.16 421.4 124.1 387.46M47.98 319.58 95.98 319.58" stroke-width="32" stroke-linecap="square" stroke-miterlimit="10" fill="#FFFFFF"/><path d="M422.2 89.82C366.001 33.5477 274.826 33.4881 218.553 89.6868 218.532 89.7078 218.511 89.7289 218.49 89.75L150.61 157.63 218.49 225.52 286.37 157.63C305.116 138.885 335.508 138.886 354.252 157.632 354.447 157.826 354.639 158.022 354.83 158.22 373.13 177.14 372.31 207.46 353.69 226.08L286.37 293.4 354.25 361.28 421.16 294.37C477.53 238 478.53 146.22 422.2 89.82M82.719 225.517 127.973 180.263 195.856 248.145 150.6 293.4ZM218.49 361.27 263.744 316.016 331.626 383.898 286.371 429.153Z" fill="#FFFFFF"/></svg>