<svg width="256" height="256" viewBox="0 0 24 24" xmlns="http://www.w3.org/2000/svg" xmlns:xlink="http://www.w3.org/1999/xlink" overflow="hidden"><path d="M7 17 7 15 12 15C11.7667 14.7167 11.5793 14.4083 11.438 14.075 11.2967 13.7417 11.184 13.3833 11.1 13L5 13 5 11 11.1 11C11.1833 10.6167 11.296 10.2583 11.438 9.925 11.58 9.59167 11.7673 9.28333 12 9L7 9 7 7 16 7C17.3833 7 18.5627 7.48767 19.538 8.463 20.5133 9.43833 21.0007 10.6173 21 12 20.9993 13.3827 20.5117 14.562 19.537 15.538 18.5623 16.514 17.3833 17.0013 16 17ZM3 17 3 15 6 15 6 17Z" fill="#FFFFFF"/></svg>