<svg width="256" height="256" viewBox="0 0 512 512" xmlns="http://www.w3.org/2000/svg" xmlns:xlink="http://www.w3.org/1999/xlink" overflow="hidden"><path d="M256.438 19.375C208.728 19.375 161.016 33.785 120.344 62.595 133.366 77.685 146.658 92.722 159.5 107.063 175.538 95.381 191.982 88.206 208.188 84.781L218.063 74.907 224.688 68.282 231.281 74.908 239.001 82.628C317.736 88.272 379.541 177.761 340.407 258.158L458.907 376.658C513.354 285.985 501.497 166.778 423.282 88.564 377.17 42.45 316.806 19.376 256.44 19.376ZM66.5 27.063 29.53 64.03C67.48 93.864 109.682 129.936 144.53 160.875L151.937 167.469 144.937 174.469 97.562 221.843 117.25 241.5 151.75 207 419.875 475.156 497.219 494.436 475.374 419.656 448.397 392.678 448.437 392.625 330.687 274.875 330.655 274.92 207.25 151.5 244.344 114.406 224.688 94.75 178.218 141.188 171.25 148.125 164.687 140.845C133.5 106.334 96.644 64.837 66.5 27.062ZM65.22 117.125C-1.735 209.41 6.38 339.035 89.593 422.25 142.523 475.18 214.226 497.698 283.155 489.875 151.655 490.872 36.351 361.312 76.03 226.719L71.156 221.843 77.75 215.218 81 211.968C88.028 193.456 98.076 174.951 111.5 156.748 96.2062 143.385 80.7788 130.176 65.22 117.123ZM185.594 163.155C197.877 163.155 207.814 173.123 207.814 185.405 207.814 187.629 207.482 189.755 206.874 191.781L443.814 428.751 430.624 441.939 194.47 205.813C191.67 207.031 188.648 207.659 185.594 207.656 173.31 207.656 163.344 197.692 163.344 185.406 163.344 173.12 173.31 163.156 185.594 163.156Z" fill="#FFFFFF"/></svg>