<svg width="256" height="256" viewBox="0 0 24 24" xmlns="http://www.w3.org/2000/svg" xmlns:xlink="http://www.w3.org/1999/xlink" overflow="hidden"><path d="M7 11 1 11 1 13 7 13ZM9.17 7.76 7.05 5.64 5.64 7.05 7.76 9.17ZM13 1 11 1 11 7 13 7ZM18.36 7.05 16.95 5.64 14.83 7.76 16.24 9.17ZM17 11 17 13 23 13 23 11ZM12 9C10.34 9 9 10.34 9 12 9 13.66 10.34 15 12 15 13.66 15 15 13.66 15 12 15 10.34 13.66 9 12 9M14.83 16.24 16.95 18.36 18.36 16.95 16.24 14.83ZM5.64 16.95 7.05 18.36 9.17 16.24 7.76 14.83ZM11 23 13 23 13 17 11 17Z" fill="#FFFFFF"/></svg>