<svg width="256" height="256" viewBox="0 0 512 512" xmlns="http://www.w3.org/2000/svg" xmlns:xlink="http://www.w3.org/1999/xlink" overflow="hidden"><path d="M287.586 15.297 291.09 126.26 322.627 15.297ZM191.806 15.535 190.056 251.582 19.523 208.252 130.486 377.69 41.716 372.516 156.148 484.873 111.682 409.006 186.896 417 135.148 307.06 245.262 387.016 232.627 201.786 232.629 201.789 307.841 372.359 383.657 282.409 377.037 436.991 437.21 397.013 416.822 476.499 492.578 333.712 416.654 335.652 487.32 155.87 355.918 228.95 343.654 89.26 278.244 229.596 191.809 15.536 191.806 15.536ZM45.503 44.095 39.355 75.94 154.285 218 154.287 218 76.687 51.164 45.502 44.094ZM467.773 68.871 436.589 75.941 392.851 183.311 473.919 100.721 467.772 68.871ZM279.208 403.61C239.032 403.61 206.5 436.147 206.5 476.32 206.5 482.045 207.136 487.026 208.387 492.37 215.637 459.825 244.484 435.715 279.207 435.715 314.027 435.715 342.88 459.685 350.027 492.371 351.245 487.094 351.915 481.967 351.915 476.321 351.915 436.146 319.379 403.611 279.205 403.611Z" fill="#FFFFFF"/></svg>