<svg width="256" height="256" viewBox="0 0 512 512" xmlns="http://www.w3.org/2000/svg" xmlns:xlink="http://www.w3.org/1999/xlink" overflow="hidden"><path d="M454.547 16.027C406.8 37.25 381.052 75.064 369.135 123.303 411.231 99.107 441.285 64.693 454.547 16.027M95.56 19.03C111.094 53.508 137.233 81.296 172.066 103.713 173.642 72.497 170.146 44.143 160.969 19.031L95.56 19.031ZM319.234 28.537C291.74 85.66 269.364 143.762 251.334 202.699 238.294 162.456 222.014 122.869 202.084 84.019 202.331 120.466 205.604 155.929 211.529 190.529 172.586 155.211 131.569 121.635 88.237 90.009 118.159 133.877 150.477 174.976 184.877 213.665 158.375 205.441 127.967 203.52 96.797 207.695 116.442 222.655 139.5 235.851 163.989 243.695 115.566 246.452 66.943 251.518 18.101 259.145 59.611 266.99 100.951 272.52 142.144 275.987 119.858 284.976 97.9907 294.968 76.608 305.933 117.216 305.658 156.605 301.633 194.938 294.356 178.198 316.092 163.294 339.518 149.948 364.384 175.683 349.264 199.926 332.504 222.502 313.907 209.998 372.155 201.192 431.11 195.41 490.645 217.06 440.058 236.454 388.652 253.287 336.317 264.569 364.393 277.484 391.937 291.843 419.013 289.363 381.675 284.843 344.749 278.05 308.283 324.882 351.363 374.55 391.165 426.522 428.3 387.677 376.43 346.284 326.704 301.938 279.46 367.108 276.962 431.945 269.9 496.514 259.146 449.014 252.328 401.356 247.339 353.524 244.371 373.131 235.734 392.484 226.311 411.602 216.173 375.036 218.6 338.865 222.977 303.135 229.536 315.49 212.936 326.753 195.549 336.85 177.486 320.469 185.511 304.66 194.652 289.533 204.846 302.761 147.283 312.793 88.562 319.233 28.538ZM494.284 58.162C445.536 85.367 405.089 127.242 374.35 186.512 420.68 185.514 460.285 173.607 494.283 152.846ZM25.36 124.676C24.0747 124.667 22.782 124.672 21.482 124.691 45.612 160.313 77.914 179.827 123.23 173.726 98.67 139.53 65.236 124.976 25.36 124.676M399.44 304.193C388.913 304.163 378.012 305.255 366.78 307.343 401.71 343.807 443.82 361.613 495.938 353.396 469.852 318.75 437.035 304.303 399.438 304.193ZM113.774 326.62C105.766 326.624 97.932 327.176 90.302 327.94 64.867 330.51 41.309 337.53 19.636 349.002L19.636 419.668C57.828 399.952 92.18 369.838 121.839 326.808 119.131 326.678 116.444 326.618 113.774 326.618ZM171.501 376.475C121.046 399.625 100.568 440.615 98.931 492.82 142.011 466.48 168.401 429.147 171.501 376.475M329.165 392.219C329.997 430.799 339.909 463.774 357.198 492.085L436.041 492.085C413.387 451.493 378.519 417.815 329.164 392.218Z" fill="#FFFFFF"/></svg>