<svg width="256" height="256" viewBox="0 0 24 24" xmlns="http://www.w3.org/2000/svg" xmlns:xlink="http://www.w3.org/1999/xlink" overflow="hidden"><path d="M9.83 8.79 8 9.456 8 13 6 13 6 8.05 6.015 8.05 11.283 6.132C11.527 6.039 11.793 5.992 12.065 6.001 13.1787 6.02998 14.1522 6.76004 14.492 7.821 14.678 8.40433 14.848 8.798 15.002 9.002 15.9463 10.2597 17.4273 10.9998 19 11L19 13C16.909 13.0017 14.9271 12.0672 13.598 10.453L13.017 13.75 15 15.67 15 23 13 23 13 17.014 10.95 15.027 10.003 19.325 3.109 18.11 3.457 16.14 8.381 17.008ZM13.5 5.5C12.3954 5.5 11.5 4.60457 11.5 3.5 11.5 2.39543 12.3954 1.5 13.5 1.5 14.6046 1.5 15.5 2.39543 15.5 3.5 15.5 4.60457 14.6046 5.5 13.5 5.5" fill="#FFFFFF"/></svg>