<svg width="256" height="256" viewBox="0 0 32 32" xmlns="http://www.w3.org/2000/svg" xmlns:xlink="http://www.w3.org/1999/xlink" overflow="hidden"><path d="M16 30C8.27167 29.9912 2.00882 23.7283 2 16L4 16C4 22.6274 9.37258 28 16 28 22.6274 28 28 22.6274 28 16 28 9.37258 22.6274 4 16 4L16 2C23.732 2 30 8.26801 30 16 30 23.732 23.732 30 16 30" fill="#FFFFFF"/><path d="M4 12 4 10 8.586 10 2 3.414 3.414 2 10 8.586 10 4 12 4 12 12ZM16 10 16 16 10 16C10 19.3137 12.6863 22 16 22 19.3137 22 22 19.3137 22 16 22 12.6863 19.3137 10 16 10" fill="#FFFFFF"/></svg>