<svg width="256" height="256" viewBox="0 0 512 512" xmlns="http://www.w3.org/2000/svg" xmlns:xlink="http://www.w3.org/1999/xlink" overflow="hidden"><path d="M494 18.02 393 18.123 393 119 494 119ZM375 18.14 137 18.387 137 119 375 119ZM119 18.406 18 18.51 18 119 119 119ZM18 137 18 247 247 247 247 137ZM265 137 265 247 494 247 494 137ZM18 265 18 375 119 375 119 265ZM137 265 137 375 375 375 375 265ZM393 265 393 375 494 375 494 265ZM18 393 18 493.98 247 493.744 247 393ZM265 393 265 493.727 494 493.49 494 393Z" fill="#FFFFFF"/></svg>