<svg width="256" height="256" viewBox="0 0 32 32" xmlns="http://www.w3.org/2000/svg" xmlns:xlink="http://www.w3.org/1999/xlink" overflow="hidden"><path d="M10.52 7.052C10.2307 6.93368 10.0007 6.70472 9.881 6.416L8.93 4.257C8.752 3.914 8.24 3.914 8.072 4.257L7.12 6.417C6.99108 6.69882 6.76443 6.92441 6.482 7.052L5.268 7.576C5.03659 7.68349 4.93614 7.95823 5.04364 8.18964 5.08959 8.28857 5.16907 8.36804 5.268 8.414L6.482 8.938C6.775 9.059 7.005 9.291 7.12 9.574L8.072 11.743C8.25 12.086 8.762 12.086 8.93 11.743L9.882 9.573C10.008 9.291 10.238 9.069 10.52 8.938L11.734 8.414C11.9654 8.30651 12.0659 8.03177 11.9584 7.80036 11.9124 7.70143 11.8329 7.62195 11.734 7.576ZM25.574 13.555C24.7046 13.1653 24.017 12.4581 23.652 11.578L20.79 4.81C20.4466 4.09755 19.5907 3.79835 18.8783 4.14171 18.5863 4.28243 18.3507 4.51803 18.21 4.81L15.347 11.578C14.9761 12.4538 14.2908 13.1591 13.426 13.555L9.804 15.195C8.732 15.725 8.732 17.275 9.804 17.805L13.426 19.445C14.2951 19.8352 14.9825 20.5423 15.348 21.422L18.21 28.19C18.5534 28.9024 19.4093 29.2017 20.1217 28.8583 20.4137 28.7176 20.6493 28.482 20.79 28.19L23.653 21.422C24.0239 20.5462 24.7092 19.8409 25.574 19.445L29.196 17.805C30.268 17.275 30.268 15.725 29.196 15.195ZM8.281 20.33C8.441 20.722 8.735 21.026 9.103 21.202L10.653 21.927C10.9695 22.0918 11.0924 22.4818 10.9277 22.7983 10.8665 22.9159 10.7706 23.0118 10.653 23.073L9.103 23.798C8.735 23.974 8.442 24.288 8.281 24.67L7.053 27.647C6.9108 27.9524 6.54794 28.0847 6.24253 27.9425 6.11229 27.8819 6.00764 27.7772 5.947 27.647L4.72 24.67C4.56447 24.2869 4.27125 23.9759 3.898 23.798L2.348 23.073C2.03154 22.9082 1.90856 22.5182 2.07331 22.2017 2.13452 22.0841 2.23042 21.9882 2.348 21.927L3.898 21.202C4.266 21.026 4.559 20.712 4.72 20.33L5.948 17.353C6.0902 17.0476 6.45306 16.9153 6.75847 17.0575 6.88871 17.1181 6.99336 17.2228 7.054 17.353Z" fill="#FFFFFF"/></svg>