<svg width="256" height="256" viewBox="0 0 24 24" xmlns="http://www.w3.org/2000/svg" xmlns:xlink="http://www.w3.org/1999/xlink" overflow="hidden"><path d="M11.5 16.5C12.6113 16.5 13.5557 16.111 14.333 15.333 15.111 14.5557 15.5 13.6113 15.5 12.5L15.5 8.5 11.5 8.5C10.3887 8.5 9.44433 8.889 8.667 9.667 7.889 10.4443 7.5 11.3887 7.5 12.5 7.5 12.96 7.56467 13.4027 7.694 13.828 7.82333 14.2533 8.03667 14.6363 8.334 14.977L7.646 15.647C7.53933 15.753 7.486 15.8707 7.486 16 7.486 16.1293 7.53933 16.2473 7.646 16.354 7.75267 16.4607 7.87067 16.514 8 16.514 8.12933 16.514 8.24733 16.4607 8.354 16.354L9.023 15.666C9.37633 15.95 9.76633 16.16 10.193 16.296 10.6183 16.432 11.054 16.5 11.5 16.5M12 21.577 8.996 19.227 5.231 18.769 4.774 15.004 2.423 12 4.773 8.996 5.231 5.231 8.996 4.774 12 2.423 15.004 4.773 18.769 5.231 19.226 8.996 21.577 12 19.227 15.004 18.769 18.769 15.004 19.226ZM12.354 12.354C12.4607 12.244 12.514 12.125 12.514 11.997 12.514 11.869 12.4607 11.7523 12.354 11.647 12.2473 11.5403 12.1303 11.487 12.003 11.487 11.8757 11.487 11.7567 11.5403 11.646 11.647L9.4 13.891C9.29 14.0017 9.235 14.1207 9.235 14.248 9.235 14.376 9.29 14.495 9.4 14.605 9.51067 14.715 9.63267 14.767 9.766 14.761 9.9 14.7543 10.014 14.7023 10.108 14.605Z" fill="#FFFFFF"/></svg>