<svg width="256" height="256" viewBox="0 0 24 24" xmlns="http://www.w3.org/2000/svg" xmlns:xlink="http://www.w3.org/1999/xlink" overflow="hidden"><g fill="currentColor"><path d="M12.8 10.313C12.788 9.047 13.834 8.44 13.88 8.409 13.293 7.549 12.378 7.432 12.052 7.419 11.273 7.339 10.532 7.877 10.137 7.877 9.743 7.877 9.133 7.43 8.487 7.442 7.638 7.455 6.856 7.935 6.419 8.696 5.537 10.226 6.193 12.493 7.052 13.734 7.472 14.341 7.973 15.024 8.631 14.999 9.264 14.974 9.503 14.589 10.269 14.589 11.035 14.589 11.249 14.999 11.919 14.987 12.601 14.974 13.033 14.367 13.45 13.758 13.932 13.054 14.131 12.371 14.143 12.336 14.128 12.329 12.813 11.826 12.801 10.313ZM11.542 6.597C11.891 6.173 12.126 5.586 12.062 5 11.559 5.02 10.95 5.335 10.589 5.757 10.266 6.132 9.982 6.73 10.059 7.305 10.619 7.348 11.192 7.019 11.542 6.597" fill="#FFFFFF"/><path d="M4 2C2.89543 2 2 2.89543 2 4L2 16C2 17.1046 2.89543 18 4 18L16 18C17.1046 18 18 17.1046 18 16L18 4C18 2.89543 17.1046 2 16 2ZM4 0 16 0C18.2091 -8.88178e-16 20 1.79086 20 4L20 16C20 18.2091 18.2091 20 16 20L4 20C1.79086 20 -4.44089e-16 18.2091 -4.44089e-16 16L0 4C-8.88178e-16 1.79086 1.79086 -4.44089e-16 4 -4.44089e-16" fill="#FFFFFF"/></g></svg>