<svg width="256" height="256" viewBox="0 0 20 20" xmlns="http://www.w3.org/2000/svg" xmlns:xlink="http://www.w3.org/1999/xlink" overflow="hidden"><path d="M12.159 2.974C12.4233 2.8939 12.5726 2.61474 12.4925 2.35047 12.4124 2.0862 12.1332 1.93689 11.8689 2.01699 11.8599 2.01974 11.8509 2.02274 11.842 2.026 10.905 2.338 10.32 3.108 9.976 3.933 9.92959 4.04443 9.88723 4.1575 9.849 4.272 9.66164 3.91715 9.42196 3.59252 9.138 3.309 8.36047 2.53148 7.29716 2.10832 6.198 2.139 5.618 2.155 5.155 2.619 5.139 3.198 5.10832 4.29716 5.53148 5.36047 6.309 6.138L6.34 6.168C4.61489 6.54101 3.33816 8.0006 3.198 9.76L3.192 9.834C3.05998 11.4812 3.41096 13.1312 4.202 14.582L4.562 15.24C4.57133 15.2573 4.582 15.274 4.594 15.29L5.594 16.692C6.45572 17.8988 8.13259 18.1786 9.3394 17.3168 9.45999 17.2307 9.57324 17.1348 9.678 17.03 9.85605 16.8519 10.1448 16.8518 10.3229 17.0299 10.3229 17.0299 10.323 17.03 10.323 17.03 11.3714 18.0787 13.0714 18.079 14.1202 17.0306 14.225 16.9258 14.3209 16.8126 14.407 16.692L15.407 15.291 15.439 15.24 15.798 14.582C16.589 13.1312 16.94 11.4812 16.808 9.834L16.803 9.76C16.6265 7.55792 14.6983 5.91585 12.4962 6.09233 12.383 6.10141 12.2701 6.11531 12.158 6.134L10.501 6.41C10.511 5.729 10.631 4.963 10.9 4.317 11.18 3.642 11.596 3.162 12.158 2.974M6.908 8.974C6.59792 9.07204 6.33981 9.28983 6.191 9.579 6.006 9.927 5.879 10.501 5.996 11.438 6.02376 11.7127 5.82353 11.958 5.54879 11.9857 5.2832 12.0126 5.04337 11.826 5.004 11.562 4.871 10.498 4.994 9.697 5.309 9.108 5.629 8.508 6.116 8.184 6.592 8.025 6.85406 7.93774 7.13724 8.07944 7.2245 8.3415 7.31176 8.60356 7.17006 8.88674 6.908 8.974" fill="#FFFFFF"/></svg>