<svg width="256" height="256" viewBox="0 0 24 24" xmlns="http://www.w3.org/2000/svg" xmlns:xlink="http://www.w3.org/1999/xlink" overflow="hidden"><path d="M19.414 8.902C19.5225 8.85497 19.6217 8.78893 19.707 8.707L20.207 8.207C20.5975 7.81653 20.5975 7.18347 20.207 6.793 19.8165 6.40253 19.1835 6.40253 18.793 6.793L18.293 7.293 18.178 7.466C16.7578 6.11774 14.9354 5.27132 12.989 5.056L13 5 13 4 14 4C14.55 4 15 3.55 15 3 15 2.45 14.55 2 14 2L10 2C9.45 2 9 2.45 9 3 9 3.55 9.45 4 10 4L11 4 11 5 11.012 5.057C6.0729 5.61539 2.52163 10.072 3.08002 15.0111 3.59347 19.5527 7.42947 22.9883 12 23 16.9706 22.9984 20.9987 18.9677 20.9971 13.9971 20.9965 12.1778 20.4446 10.4013 19.414 8.902M12 21C8.141 21 5 17.86 5 14 5 10.14 8.141 7 12 7 15.859 7 19 10.14 19 14 19 17.86 15.859 21 12 21M13 13 13 11C13 10.45 12.55 10 12 10 11.45 10 11 10.45 11 11L11 14C11 14.55 11.45 15 12 15L15 15C15.55 15 16 14.55 16 14 16 13.45 15.55 13 15 13ZM12 8C8.688 8 6 10.688 6 14 6 17.312 8.688 20 12 20 15.312 20 18 17.312 18 14 18 10.688 15.312 8 12 8M12 19C9.243 19 7 16.757 7 14 7 11.243 9.243 9 12 9 14.757 9 17 11.243 17 14 17 16.757 14.757 19 12 19" fill="#FFFFFF"/></svg>