<svg width="256" height="256" viewBox="0 0 1024 1024" xmlns="http://www.w3.org/2000/svg" xmlns:xlink="http://www.w3.org/1999/xlink" overflow="hidden"><path d="M742 318 742 184 828 184C832.4 184 836 180.4 836 176L836 120C836 115.6 832.4 112 828 112L196 112C191.6 112 188 115.6 188 120L188 176C188 180.4 191.6 184 196 184L282 184 282 318C282 399.5 324.4 471.2 388.4 512 324.4 552.8 282 624.5 282 706L282 840 196 840C191.6 840 188 843.6 188 848L188 904C188 908.4 191.6 912 196 912L828 912C832.4 912 836 908.4 836 904L836 848C836 843.6 832.4 840 828 840L742 840 742 706C742 624.5 699.6 552.8 635.6 512 699.6 471.2 742 399.5 742 318" fill="#FFFFFF"/></svg>