<svg width="256" height="256" viewBox="0 0 24 24" xmlns="http://www.w3.org/2000/svg" xmlns:xlink="http://www.w3.org/1999/xlink" overflow="hidden"><path d="M16.474 7.524C15.888 6.93803 14.938 6.93803 14.352 7.524 13.766 8.10997 13.766 9.06003 14.352 9.646 14.938 10.232 15.888 10.232 16.474 9.646 17.06 9.06003 17.06 8.10997 16.474 7.524" fill="#FFFFFF"/><path d="M22.003 1.998 22.811 12.503 11.879 23.435 0.565 12.121 11.497 1.19ZM13.292 6.464C12.1111 7.62613 12.0958 9.52557 13.258 10.7065 14.4201 11.8874 16.3195 11.9027 17.5005 10.7406 17.5121 10.7291 17.5236 10.7176 17.535 10.706 18.6969 9.52479 18.6812 7.62536 17.5 6.4635 16.3323 5.31501 14.4594 5.31523 13.292 6.464" fill="#FFFFFF"/></svg>