<svg width="256" height="256" viewBox="0 0 48 48" xmlns="http://www.w3.org/2000/svg" xmlns:xlink="http://www.w3.org/1999/xlink" overflow="hidden"><path d="M18.5 7.414C18.5 5.632 16.346 4.74 15.086 6L6.5 14.586C5.24 15.846 6.132 18 7.914 18L11.383 18C11.4082 18.8092 11.3149 19.6178 11.106 20.4L10.345 23.242C9.463 26.535 9.21 30.154 11.095 32.995 13.9724 37.3217 18.8042 39.9444 24 40L24 42 19 42 19 44 28.5 44 28.5 42 26 42 26 39.899C29.2485 39.5321 32.3015 38.1603 34.733 35.975 33.0643 36.654 31.2795 37.0021 29.478 37 22.071 37 16 31.216 16 24 16 23.4477 16.4477 23 17 23 17.5523 23 18 23.4477 18 24 18 30.039 23.102 35 29.478 35 33.003 35 36.148 33.479 38.25 31.095 38.316 31.0203 38.3893 30.958 38.47 30.908 38.97 29.818 39.347 28.66 39.583 27.453 39.952 25.561 40.497 23.669 41.661 22.133 42.144 21.496 41.601 20.597 40.813 20.727L27.698 22.89C25.6026 23.2357 23.5175 22.22 22.498 20.357L19.178 14.29 21.198 12.495C22.574 11.273 21.709 9 19.87 9L18.5 9ZM18.193 12.49 19.87 11 18.5 11C17.3954 11 16.5 10.1046 16.5 9L16.5 7.414 13.856 10.058C14.0753 10.0193 14.3003 10 14.531 10 15.9486 10.0002 17.2533 10.7735 17.934 12.017ZM10.708 13.206 7.914 16 11.073 16 10.775 14.852C10.6357 14.3144 10.6129 13.7532 10.708 13.206M14 14C14.5523 14 15 13.5523 15 13 15 12.4477 14.5523 12 14 12 13.4477 12 13 12.4477 13 13 13 13.5523 13.4477 14 14 14" fill="#FFFFFF" fill-rule="evenodd" clip-rule="evenodd"/></svg>